<?xml version="1.0" encoding="UTF-8"?>
<svg version="1.1" xmlns="http://www.w3.org/2000/svg" width="512" height="512">
<path d="M0 0 C1.26427322 0.26851273 2.52854645 0.53702545 3.83113098 0.81367493 C7.29374192 1.54933897 10.7535339 2.29754534 14.21295834 3.04803014 C17.9168542 3.84921077 21.62327278 4.63855605 25.32940674 5.42930603 C32.41918943 6.94384152 39.50669437 8.46877089 46.59343266 9.99748081 C54.37759926 11.67616255 62.16409542 13.34389215 69.95089626 15.01030469 C79.94873281 17.14994207 89.94604055 19.29196341 99.9407959 21.44595337 C103.03441005 22.11255176 106.12803509 22.77909958 109.22167969 23.44555664 C109.9869847 23.61043115 110.75228971 23.77530566 111.54078579 23.94517636 C122.88156009 26.38732964 134.22844493 28.79941845 145.5792613 31.19443667 C150.46796067 32.22679962 155.35576467 33.26339508 160.24357057 34.29997891 C164.88544474 35.28383196 169.52874175 36.26057342 174.17321682 37.23206949 C177.02944919 37.83130704 179.88420221 38.43736645 182.73859119 39.04531789 C184.68298113 39.45725756 186.62913871 39.86082615 188.57534027 40.2641201 C189.73965828 40.51340075 190.90397629 40.76268139 192.10357666 41.01951599 C193.10984226 41.23125678 194.11610786 41.44299757 195.15286636 41.66115475 C200.35992567 43.1494317 204.1858791 44.89981324 207.07519531 49.55444336 C207.58566406 50.35946289 208.09613281 51.16448242 208.62207031 51.99389648 C209.14929688 52.85692383 209.67652344 53.71995117 210.21972656 54.60913086 C211.36939845 56.43469433 212.51913909 58.2602145 213.66894531 60.08569336 C214.23661621 60.99867187 214.80428711 61.91165039 215.38916016 62.85229492 C217.72445244 66.59292654 220.12677047 70.28840709 222.53222656 73.98413086 C223.42841708 75.3693165 224.32424542 76.75473652 225.21972656 78.14038086 C228.31656197 82.92639921 231.42422373 87.70535985 234.53222656 92.48413086 C239.02794176 99.3970039 243.51804041 106.31343485 247.9934082 113.23950195 C250.3296564 116.855012 252.67091908 120.46711647 255.02050781 124.07397461 C255.51405762 124.83299072 256.00760742 125.59200684 256.51611328 126.37402344 C257.4523938 127.81366874 258.39010836 129.25238294 259.32958984 130.68994141 C260.17773143 131.99547707 261.0163189 133.30727991 261.84423828 134.62573242 C262.61668235 135.83408513 263.42455616 137.02074249 264.27099609 138.1784668 C268.31009981 144.10479199 266.72021124 149.64815819 265.52575684 156.3080368 C264.90205067 159.44272857 264.23814696 162.56649104 263.56152344 165.69018555 C263.30844327 166.87975861 263.0553631 168.06933167 262.79461384 169.29495239 C262.09835605 172.56245399 261.39731132 175.82885801 260.69408822 179.09486294 C259.9391314 182.60655998 259.19019069 186.11954015 258.44059753 189.63238525 C257.31645986 194.89757902 256.19006621 200.16228255 255.0612101 205.4264667 C253.02390641 214.92720491 250.99957652 224.43065425 248.98062408 233.9353075 C242.71128073 263.44457035 236.40532301 292.94372776 229.86535275 322.39433312 C228.82002924 327.10493002 227.78247944 331.81718573 226.75039673 336.53070068 C226.60726118 337.18437772 226.46412564 337.83805475 226.31665266 338.51154017 C225.60726489 341.75268656 224.89896884 344.99406916 224.19144249 348.23562241 C222.84464024 354.39582296 221.4826242 360.55172789 220.08154297 366.6998291 C214.19111711 392.57553308 209.75981366 417.19989924 210.19328308 443.83276367 C210.2092796 445.17548592 210.2092796 445.17548592 210.22559929 446.54533386 C210.25162649 448.20489118 210.29685453 449.86430778 210.36525154 451.5226593 C210.43119886 454.90228277 210.43790594 456.95625853 208.33940601 459.68683869 C205.55270291 461.85767966 204.23834933 461.98429931 200.74105835 461.98470211 C199.66267511 461.9945164 198.58429188 462.00433069 197.47323036 462.01444238 C196.28919813 462.00483738 195.1051659 461.99523237 193.88525391 461.9853363 C192.62692434 461.9908707 191.36859478 461.9964051 190.07213402 462.0021072 C186.57705466 462.01689126 183.08242447 462.00666355 179.58735943 461.99237049 C175.81906076 461.98128115 172.05082615 461.99319651 168.28253174 462.00221252 C160.89954087 462.01616097 153.5167208 462.00857704 146.13373804 461.99353694 C137.53992076 461.97669517 128.94614625 461.97988479 120.35231757 461.98363102 C105.02097663 461.98951254 89.68971776 461.97532661 74.35839844 461.95068359 C59.47425256 461.92676196 44.59021634 461.91967896 29.70605469 461.93017578 C13.50670246 461.94157962 -2.69259901 461.94352167 -18.89195061 461.92907768 C-20.61862055 461.92755181 -22.3452905 461.92603145 -24.07196045 461.92451668 C-24.92156361 461.92375886 -25.77116678 461.92300105 -26.64651549 461.92222027 C-32.63994132 461.91747331 -38.63334453 461.9193318 -44.62677002 461.92358208 C-51.92859468 461.92850377 -59.23031555 461.92254666 -66.53211641 461.90268778 C-70.25918005 461.89280168 -73.98608552 461.88772476 -77.71315765 461.89558029 C-81.74918928 461.9039131 -85.78479766 461.88908464 -89.82080078 461.87181091 C-91.00483301 461.87782096 -92.18886524 461.883831 -93.40877724 461.89002317 C-95.02635209 461.87736326 -95.02635209 461.87736326 -96.67660522 461.86444759 C-97.60854895 461.86341846 -98.54049267 461.86238933 -99.50067711 461.86132902 C-102.46306339 461.40840522 -103.81911415 460.54833299 -105.96777344 458.48413086 C-107.04799488 455.24346653 -107.07146556 452.96401294 -107.03851318 449.55664062 C-107.02951492 448.31785156 -107.02051666 447.0790625 -107.01124573 445.80273438 C-107.00403566 445.13388214 -106.9968256 444.46502991 -106.98939705 443.77590942 C-106.9581925 440.8758804 -106.93817811 437.97579944 -106.91714239 435.07568169 C-106.90562151 433.51274605 -106.89348068 431.94981488 -106.88076639 430.3868885 C-106.83452786 424.62690068 -106.80927401 418.86708885 -106.79669189 413.10693359 C-106.79485736 412.26949899 -106.79302282 411.43206438 -106.79113269 410.56925297 C-106.78403506 407.11225112 -106.77773019 403.65524853 -106.77203512 400.19824409 C-106.75527139 390.41147467 -106.71789772 380.62587539 -106.61474609 370.83959961 C-106.53288826 363.0610141 -106.49796519 355.28376023 -106.51626039 347.50474453 C-106.52423378 343.39553702 -106.50994946 339.28935424 -106.43865204 335.18069458 C-106.13658023 316.88730641 -106.41346005 302.40973955 -119.45631218 288.17008018 C-121.55165889 285.83283974 -123.24206525 283.28459436 -124.95605469 280.65991211 C-125.51407272 279.84778259 -126.07209076 279.03565308 -126.64701843 278.19891357 C-127.77610168 276.53819484 -128.88994499 274.86704934 -129.99128723 273.18780518 C-133.13348813 268.43596145 -136.29753788 264.00811019 -140.17236328 259.82568359 C-156.52393447 241.0136338 -154.02472012 219.06202127 -153.35784912 195.49450684 C-153.25349783 191.10879681 -153.22935305 186.72418035 -153.20742512 182.33739853 C-153.17691406 177.08890663 -153.0990176 171.84142709 -153.01855469 166.59350586 C-153.00763605 165.59967644 -152.99671741 164.60584702 -152.98546791 163.58190155 C-152.94644702 160.78198973 -152.87347906 157.98515252 -152.78930664 155.1862793 C-152.77856613 153.94595444 -152.77856613 153.94595444 -152.76760864 152.68057251 C-152.61513853 148.80859446 -152.32615924 146.87843178 -149.68139648 143.96862793 C-147.02892293 142.51758291 -145.69646626 141.99233793 -142.72827148 142.0300293 C-141.92781906 142.03033142 -141.12736664 142.03063354 -140.30265808 142.03094482 C-139.45351334 142.05158997 -138.60436859 142.07223511 -137.72949219 142.09350586 C-136.84872513 142.09916565 -135.96795807 142.10482544 -135.0605011 142.11065674 C-132.25819651 142.13297756 -129.45718898 142.18316509 -126.65527344 142.23413086 C-124.75099508 142.25420145 -122.8466966 142.27245124 -120.94238281 142.28881836 C-116.28368291 142.33282819 -111.62594779 142.40182537 -106.96777344 142.48413086 C-106.97443527 141.58068436 -106.98109711 140.67723785 -106.98796082 139.74641418 C-107.04810151 131.22735266 -107.09376293 122.70836256 -107.12320995 114.18913746 C-107.13885798 109.80943041 -107.1600804 105.42989896 -107.1940918 101.05029297 C-107.22671617 96.82277897 -107.24463295 92.59543375 -107.25240517 88.36780357 C-107.25794316 86.75586986 -107.26875759 85.14394527 -107.28496361 83.53208351 C-107.30677925 81.27216338 -107.3097387 79.01293837 -107.30834961 76.75292969 C-107.31501144 75.46719559 -107.32167328 74.18146149 -107.32853699 72.85676575 C-106.91001089 68.9441318 -105.76850944 66.28486686 -102.96777344 63.48413086 C-101.00408191 63.39012416 -99.03698145 63.36669705 -97.07104492 63.37060547 C-95.80981308 63.370681 -94.54858124 63.37075653 -93.24913025 63.37083435 C-91.8623755 63.37594176 -90.47562115 63.38115777 -89.08886719 63.38647461 C-87.67782135 63.38833885 -86.26677487 63.38976272 -84.85572815 63.39076233 C-81.13536808 63.39458707 -77.41504684 63.40441696 -73.69470215 63.41546631 C-69.90096563 63.42568138 -66.10722286 63.43026015 -62.31347656 63.43530273 C-54.86489113 63.44603928 -47.41633771 63.46311516 -39.96777344 63.48413086 C-39.83758316 62.79797699 -39.70739288 62.11182312 -39.57325745 61.40487671 C-34.34700607 33.91134038 -34.34700607 33.91134038 -31.39233398 20.36157227 C-31.0594074 18.82193283 -30.73321463 17.28082593 -30.4128418 15.73852539 C-29.93375084 13.43424706 -29.43551147 11.13487823 -28.93261719 8.83569336 C-28.79395737 8.15044586 -28.65529755 7.46519836 -28.51243591 6.75918579 C-27.86367438 3.88597886 -27.00317897 1.54226865 -25.4699707 -0.9753418 C-18.35244815 -5.35738564 -7.58827886 -1.66295138 0 0 Z " fill="#00ACEE" transform="translate(175.9677734375,26.515869140625)"/>
<path d="M0 0 C1.26427322 0.26851273 2.52854645 0.53702545 3.83113098 0.81367493 C7.29374192 1.54933897 10.7535339 2.29754534 14.21295834 3.04803014 C17.9168542 3.84921077 21.62327278 4.63855605 25.32940674 5.42930603 C32.41918943 6.94384152 39.50669437 8.46877089 46.59343266 9.99748081 C54.37759926 11.67616255 62.16409542 13.34389215 69.95089626 15.01030469 C79.94873281 17.14994207 89.94604055 19.29196341 99.9407959 21.44595337 C103.03441005 22.11255176 106.12803509 22.77909958 109.22167969 23.44555664 C109.9869847 23.61043115 110.75228971 23.77530566 111.54078579 23.94517636 C122.88156009 26.38732964 134.22844493 28.79941845 145.5792613 31.19443667 C150.46796067 32.22679962 155.35576467 33.26339508 160.24357057 34.29997891 C164.88544474 35.28383196 169.52874175 36.26057342 174.17321682 37.23206949 C177.02944919 37.83130704 179.88420221 38.43736645 182.73859119 39.04531789 C184.68298113 39.45725756 186.62913871 39.86082615 188.57534027 40.2641201 C189.73965828 40.51340075 190.90397629 40.76268139 192.10357666 41.01951599 C193.10984226 41.23125678 194.11610786 41.44299757 195.15286636 41.66115475 C200.35992567 43.1494317 204.1858791 44.89981324 207.07519531 49.55444336 C207.58566406 50.35946289 208.09613281 51.16448242 208.62207031 51.99389648 C209.14929688 52.85692383 209.67652344 53.71995117 210.21972656 54.60913086 C211.36939845 56.43469433 212.51913909 58.2602145 213.66894531 60.08569336 C214.23661621 60.99867187 214.80428711 61.91165039 215.38916016 62.85229492 C217.72445244 66.59292654 220.12677047 70.28840709 222.53222656 73.98413086 C223.42841708 75.3693165 224.32424542 76.75473652 225.21972656 78.14038086 C228.31656197 82.92639921 231.42422373 87.70535985 234.53222656 92.48413086 C239.02794176 99.3970039 243.51804041 106.31343485 247.9934082 113.23950195 C250.3296564 116.855012 252.67091908 120.46711647 255.02050781 124.07397461 C255.51405762 124.83299072 256.00760742 125.59200684 256.51611328 126.37402344 C257.4523938 127.81366874 258.39010836 129.25238294 259.32958984 130.68994141 C260.17773143 131.99547707 261.0163189 133.30727991 261.84423828 134.62573242 C262.61668235 135.83408513 263.42455616 137.02074249 264.27099609 138.1784668 C268.31009981 144.10479199 266.72021124 149.64815819 265.52575684 156.3080368 C264.90205067 159.44272857 264.23814696 162.56649104 263.56152344 165.69018555 C263.30844327 166.87975861 263.0553631 168.06933167 262.79461384 169.29495239 C262.09835605 172.56245399 261.39731132 175.82885801 260.69408822 179.09486294 C259.9391314 182.60655998 259.19019069 186.11954015 258.44059753 189.63238525 C257.31645986 194.89757902 256.19006621 200.16228255 255.0612101 205.4264667 C253.02390641 214.92720491 250.99957652 224.43065425 248.98062408 233.9353075 C242.71128073 263.44457035 236.40532301 292.94372776 229.86535275 322.39433312 C228.82002924 327.10493002 227.78247944 331.81718573 226.75039673 336.53070068 C226.60726118 337.18437772 226.46412564 337.83805475 226.31665266 338.51154017 C225.60726489 341.75268656 224.89896884 344.99406916 224.19144249 348.23562241 C222.84464024 354.39582296 221.4826242 360.55172789 220.08154297 366.6998291 C214.19111711 392.57553308 209.75981366 417.19989924 210.19328308 443.83276367 C210.2092796 445.17548592 210.2092796 445.17548592 210.22559929 446.54533386 C210.25162649 448.20489118 210.29685453 449.86430778 210.36525154 451.5226593 C210.43119886 454.90228277 210.43790594 456.95625853 208.33940601 459.68683869 C205.55270291 461.85767966 204.23834933 461.98429931 200.74105835 461.98470211 C199.66267511 461.9945164 198.58429188 462.00433069 197.47323036 462.01444238 C196.28919813 462.00483738 195.1051659 461.99523237 193.88525391 461.9853363 C192.62692434 461.9908707 191.36859478 461.9964051 190.07213402 462.0021072 C186.57705466 462.01689126 183.08242447 462.00666355 179.58735943 461.99237049 C175.81906076 461.98128115 172.05082615 461.99319651 168.28253174 462.00221252 C160.89954087 462.01616097 153.5167208 462.00857704 146.13373804 461.99353694 C137.53992076 461.97669517 128.94614625 461.97988479 120.35231757 461.98363102 C105.02097663 461.98951254 89.68971776 461.97532661 74.35839844 461.95068359 C59.47425256 461.92676196 44.59021634 461.91967896 29.70605469 461.93017578 C13.50670246 461.94157962 -2.69259901 461.94352167 -18.89195061 461.92907768 C-20.61862055 461.92755181 -22.3452905 461.92603145 -24.07196045 461.92451668 C-24.92156361 461.92375886 -25.77116678 461.92300105 -26.64651549 461.92222027 C-32.63994132 461.91747331 -38.63334453 461.9193318 -44.62677002 461.92358208 C-51.92859468 461.92850377 -59.23031555 461.92254666 -66.53211641 461.90268778 C-70.25918005 461.89280168 -73.98608552 461.88772476 -77.71315765 461.89558029 C-81.74918928 461.9039131 -85.78479766 461.88908464 -89.82080078 461.87181091 C-91.00483301 461.87782096 -92.18886524 461.883831 -93.40877724 461.89002317 C-95.02635209 461.87736326 -95.02635209 461.87736326 -96.67660522 461.86444759 C-97.60854895 461.86341846 -98.54049267 461.86238933 -99.50067711 461.86132902 C-102.46306339 461.40840522 -103.81911415 460.54833299 -105.96777344 458.48413086 C-107.04799488 455.24346653 -107.07146556 452.96401294 -107.03851318 449.55664062 C-107.02951492 448.31785156 -107.02051666 447.0790625 -107.01124573 445.80273438 C-107.00403566 445.13388214 -106.9968256 444.46502991 -106.98939705 443.77590942 C-106.9581925 440.8758804 -106.93817811 437.97579944 -106.91714239 435.07568169 C-106.90562151 433.51274605 -106.89348068 431.94981488 -106.88076639 430.3868885 C-106.83452786 424.62690068 -106.80927401 418.86708885 -106.79669189 413.10693359 C-106.79485736 412.26949899 -106.79302282 411.43206438 -106.79113269 410.56925297 C-106.78403506 407.11225112 -106.77773019 403.65524853 -106.77203512 400.19824409 C-106.75527139 390.41147467 -106.71789772 380.62587539 -106.61474609 370.83959961 C-106.53288826 363.0610141 -106.49796519 355.28376023 -106.51626039 347.50474453 C-106.52423378 343.39553702 -106.50994946 339.28935424 -106.43865204 335.18069458 C-106.13658023 316.88730641 -106.41346005 302.40973955 -119.45631218 288.17008018 C-121.55165889 285.83283974 -123.24206525 283.28459436 -124.95605469 280.65991211 C-125.51407272 279.84778259 -126.07209076 279.03565308 -126.64701843 278.19891357 C-127.77610168 276.53819484 -128.88994499 274.86704934 -129.99128723 273.18780518 C-133.13348813 268.43596145 -136.29753788 264.00811019 -140.17236328 259.82568359 C-156.52393447 241.0136338 -154.02472012 219.06202127 -153.35784912 195.49450684 C-153.25349783 191.10879681 -153.22935305 186.72418035 -153.20742512 182.33739853 C-153.17691406 177.08890663 -153.0990176 171.84142709 -153.01855469 166.59350586 C-153.00763605 165.59967644 -152.99671741 164.60584702 -152.98546791 163.58190155 C-152.94644702 160.78198973 -152.87347906 157.98515252 -152.78930664 155.1862793 C-152.77856613 153.94595444 -152.77856613 153.94595444 -152.76760864 152.68057251 C-152.61513853 148.80859446 -152.32615924 146.87843178 -149.68139648 143.96862793 C-147.02892293 142.51758291 -145.69646626 141.99233793 -142.72827148 142.0300293 C-141.92781906 142.03033142 -141.12736664 142.03063354 -140.30265808 142.03094482 C-139.45351334 142.05158997 -138.60436859 142.07223511 -137.72949219 142.09350586 C-136.84872513 142.09916565 -135.96795807 142.10482544 -135.0605011 142.11065674 C-132.25819651 142.13297756 -129.45718898 142.18316509 -126.65527344 142.23413086 C-124.75099508 142.25420145 -122.8466966 142.27245124 -120.94238281 142.28881836 C-116.28368291 142.33282819 -111.62594779 142.40182537 -106.96777344 142.48413086 C-106.97443527 141.58068436 -106.98109711 140.67723785 -106.98796082 139.74641418 C-107.04810151 131.22735266 -107.09376293 122.70836256 -107.12320995 114.18913746 C-107.13885798 109.80943041 -107.1600804 105.42989896 -107.1940918 101.05029297 C-107.22671617 96.82277897 -107.24463295 92.59543375 -107.25240517 88.36780357 C-107.25794316 86.75586986 -107.26875759 85.14394527 -107.28496361 83.53208351 C-107.30677925 81.27216338 -107.3097387 79.01293837 -107.30834961 76.75292969 C-107.31501144 75.46719559 -107.32167328 74.18146149 -107.32853699 72.85676575 C-106.91001089 68.9441318 -105.76850944 66.28486686 -102.96777344 63.48413086 C-101.00408191 63.39012416 -99.03698145 63.36669705 -97.07104492 63.37060547 C-95.80981308 63.370681 -94.54858124 63.37075653 -93.24913025 63.37083435 C-91.8623755 63.37594176 -90.47562115 63.38115777 -89.08886719 63.38647461 C-87.67782135 63.38833885 -86.26677487 63.38976272 -84.85572815 63.39076233 C-81.13536808 63.39458707 -77.41504684 63.40441696 -73.69470215 63.41546631 C-69.90096563 63.42568138 -66.10722286 63.43026015 -62.31347656 63.43530273 C-54.86489113 63.44603928 -47.41633771 63.46311516 -39.96777344 63.48413086 C-39.83758316 62.79797699 -39.70739288 62.11182312 -39.57325745 61.40487671 C-34.34700607 33.91134038 -34.34700607 33.91134038 -31.39233398 20.36157227 C-31.0594074 18.82193283 -30.73321463 17.28082593 -30.4128418 15.73852539 C-29.93375084 13.43424706 -29.43551147 11.13487823 -28.93261719 8.83569336 C-28.79395737 8.15044586 -28.65529755 7.46519836 -28.51243591 6.75918579 C-27.86367438 3.88597886 -27.00317897 1.54226865 -25.4699707 -0.9753418 C-18.35244815 -5.35738564 -7.58827886 -1.66295138 0 0 Z M-89.96777344 79.48413086 C-89.96777344 100.60413086 -89.96777344 121.72413086 -89.96777344 143.48413086 C-82.00185059 143.49814941 -82.00185059 143.49814941 -73.875 143.51245117 C-56.36071911 143.54616519 -38.84655621 143.6014806 -21.33237076 143.6680336 C-10.70985913 143.70786791 -0.08742205 143.74023806 10.53515625 143.75512695 C19.79221364 143.76812073 29.04910729 143.79502706 38.30607247 143.83874393 C43.20903805 143.86141 48.11180129 143.87703847 53.01482391 143.87601471 C57.62778456 143.87527113 62.24029704 143.89309985 66.85314178 143.92529869 C68.54785113 143.93383166 70.24261055 143.93552469 71.93733215 143.92993355 C74.2486051 143.92332282 76.55843983 143.94114144 78.86956787 143.96514893 C80.16376522 143.9688361 81.45796257 143.97252327 82.79137802 143.97632217 C86.03222656 144.48413086 86.03222656 144.48413086 88.44898796 146.27463913 C90.87893865 149.66576157 90.57302988 153.12192483 90.51806641 157.13647461 C90.5218631 158.0084549 90.52565979 158.88043518 90.52957153 159.77883911 C90.53697871 162.66013603 90.51559229 165.54042361 90.49316406 168.42163086 C90.49077962 170.42415244 90.48987432 172.42667628 90.49038696 174.42919922 C90.48725866 178.62571216 90.47069098 182.82188353 90.44384766 187.01831055 C90.40986791 192.39870907 90.40221909 197.77873221 90.40373802 203.15922546 C90.40319427 207.29418525 90.39222624 211.42906289 90.37773514 215.56399536 C90.3713688 217.54793679 90.36742863 219.53188753 90.36594772 221.51583862 C90.36161301 224.28798282 90.34410822 227.05972851 90.32275391 229.83178711 C90.32366028 230.65268829 90.32456665 231.47358948 90.32550049 232.31936646 C90.24524556 239.4415882 90.24524556 239.4415882 88.03222656 242.48413086 C85.07277322 243.96385753 82.41427017 243.62589878 79.1100769 243.64234924 C78.03206818 243.64974373 78.03206818 243.64974373 76.93228149 243.6572876 C74.50449878 243.67272468 72.07674229 243.68104092 69.64892578 243.68945312 C67.88651355 243.69916414 66.12410367 243.70930937 64.36169624 243.71985531 C59.62968013 243.74696553 54.89765469 243.76811004 50.16560364 243.78804779 C45.72992972 243.80763232 41.29429221 243.83255827 36.85864258 243.85705566 C23.87486457 243.92563346 10.89104225 243.98560275 -2.09277344 244.04663086 C-31.09152344 244.19100586 -60.09027344 244.33538086 -89.96777344 244.48413086 C-89.96777344 310.81413086 -89.96777344 377.14413086 -89.96777344 445.48413086 C3.75222656 445.48413086 97.47222656 445.48413086 194.03222656 445.48413086 C194.03222656 351.10413086 194.03222656 256.72413086 194.03222656 159.48413086 C169.61222656 159.15413086 145.19222656 158.82413086 120.03222656 158.48413086 C101.3581209 139.8100252 114.39396212 105.89082683 114.03222656 79.48413086 C46.71222656 79.48413086 -20.60777344 79.48413086 -89.96777344 79.48413086 Z " fill="#13699D" transform="translate(175.9677734375,26.515869140625)"/>
<path d="M0 0 C15.43029237 14.6760183 25.39637969 34.41626581 25.96484375 55.89453125 C26.22662521 81.50689159 18.40002854 102.36940611 0.4921875 121.06640625 C-8.38748857 129.56760432 -19.51362653 135.87933409 -31.203125 139.66015625 C-32.069375 139.95792969 -32.935625 140.25570312 -33.828125 140.5625 C-54.28123706 146.46452835 -77.29425562 143.5608357 -95.88671875 133.640625 C-116.29205613 121.4551055 -131.27073063 102.90872877 -137.203125 79.66015625 C-141.70376257 55.64626488 -137.16072246 33.81662313 -124.15234375 13.44921875 C-112.10127029 -3.63288538 -94.54266222 -15.38221988 -74.203125 -20.33984375 C-46.64995214 -24.74098926 -21.41843959 -18.12096796 0 0 Z " fill="#146A9E" transform="translate(284.203125,313.33984375)"/>
<path d="M0 0 C69.63 0 139.26 0 211 0 C211 22.77 211 45.54 211 69 C141.37 69 71.74 69 0 69 C0 46.23 0 23.46 0 0 Z " fill="#FDFDFE" transform="translate(40,186)"/>
<path d="M0 0 C7.70893415 0.559119 15.08766233 1.9497371 22.625 3.625 C24.44330322 4.02150757 24.44330322 4.02150757 26.29833984 4.42602539 C29.54198292 5.13439532 32.78449547 5.84749734 36.02636719 6.56390381 C41.89152661 7.85987622 47.75819018 9.14902369 53.625 10.4375 C54.28554382 10.5827713 54.94608765 10.7280426 55.62664795 10.87771606 C66.87126225 13.34842559 78.13799086 15.6996072 89.41741943 18.00561523 C99.99098102 20.16735037 110.55071103 22.38411556 121.1003418 24.66040039 C127.80912021 26.10625371 134.52135829 27.53396467 141.23828125 28.94140625 C142.04044067 29.10949295 142.8426001 29.27757965 143.66906738 29.45075989 C145.30999666 29.79455993 146.95092685 30.13835568 148.59185791 30.48214722 C160.86604481 33.0548476 173.13257167 35.65465023 185.375 38.375 C186.44886963 38.61347656 187.52273926 38.85195312 188.62915039 39.09765625 C190.56635948 39.53124522 192.50214468 39.97127505 194.43603516 40.41943359 C196.07013274 40.78944731 197.71040882 41.13378115 199.35693359 41.44384766 C202.64398927 42.11001019 204.7050573 42.72408586 207.1796875 45.0390625 C207.73914063 45.89242187 208.29859375 46.74578125 208.875 47.625 C209.54144531 48.62273437 210.20789063 49.62046875 210.89453125 50.6484375 C211.58933594 51.75445312 212.28414062 52.86046875 213 54 C213.35755371 54.56493164 213.71510742 55.12986328 214.08349609 55.71191406 C215.66926326 58.21999395 217.24415323 60.73435467 218.80297852 63.25927734 C224.40327729 72.32901929 230.28742902 81.21502817 236.12597656 90.13232422 C237.89955703 92.84629976 239.66643562 95.56446167 241.4296875 98.28515625 C241.97318848 99.12272461 242.51668945 99.96029297 243.07666016 100.82324219 C244.1429405 102.47098308 245.20518073 104.12134607 246.26318359 105.77441406 C248.90942699 109.88785699 251.62898438 113.89782222 254.546875 117.82421875 C255.11575439 118.61078857 255.68463379 119.3973584 256.27075195 120.20776367 C257.34206603 121.68111475 258.44042928 123.13537007 259.57104492 124.5637207 C262.52374907 128.67968634 263.34175254 131.376853 262.5625 136.421875 C262.0700588 138.62113371 261.54588467 140.8133937 261 143 C260.6996896 144.35701546 260.40445506 145.71516128 260.11352539 147.07421875 C259.13108195 151.64080597 258.09954444 156.1955476 257.0625 160.75 C254.9001326 170.25521924 252.80451736 179.75202883 251.04815674 189.34155273 C249.91868472 195.5039922 248.63864908 201.62730961 247.3125 207.75 C247.06266357 208.91176758 246.81282715 210.07353516 246.55541992 211.27050781 C245.04381665 218.26997783 243.50027394 225.26181194 241.9375 232.25 C241.76139694 233.03836243 241.58529388 233.82672485 241.40385437 234.63897705 C240.54137229 238.4982239 239.67568377 242.35669834 238.80395508 246.21386719 C237.08646639 253.85034694 235.49432844 261.49213789 234.08345032 269.1913147 C232.85623816 275.86559014 231.44177511 282.49433634 230 289.125 C229.7525 290.27097656 229.505 291.41695313 229.25 292.59765625 C228.75467449 294.89111657 228.25859532 297.18441427 227.76171875 299.47753906 C226.49906891 305.3164852 225.24966443 311.15826194 224 317 C223.67 317 223.34 317 223 317 C223.00129882 316.0590876 223.00259764 315.1181752 223.00393581 314.14875031 C223.03394921 291.24660441 223.02377173 268.34474457 222.97153378 245.44263458 C222.94720067 234.36726977 222.93589243 223.29217851 222.95532227 212.21679688 C222.97222567 202.56264414 222.96461373 192.90887403 222.92765242 183.25477171 C222.90893774 178.14359461 222.90243918 173.03306452 222.92530632 167.92189026 C222.94645406 163.10840671 222.93475861 158.29610715 222.89815521 153.48272705 C222.89047814 151.7187354 222.89467629 149.95464471 222.91181374 148.1907196 C223.33879204 137.59712792 223.33879204 137.59712792 218.9225769 128.37364197 C217.64294468 127.21745369 216.33474499 126.09210154 215 125 C213.76327536 123.74370528 212.53822332 122.47582567 211.3243866 121.19740295 C210.00287872 119.87005241 208.67872066 118.54533652 207.35229492 117.22290039 C206.62296753 116.49182068 205.89364014 115.76074097 205.14221191 115.00750732 C202.75745449 112.61838753 200.36910471 110.23289781 197.98046875 107.84765625 C196.31360001 106.1801133 194.64687969 104.51242197 192.9803009 102.84458923 C189.50126615 99.3640855 186.02044214 95.88538391 182.53833008 92.40795898 C178.06806929 87.9434217 173.60234859 83.47437422 169.13793468 79.00399113 C165.70405732 75.56650922 162.26781297 72.13140143 158.83083534 68.69701958 C157.18220869 67.04906111 155.5343276 65.40035644 153.88719749 63.75090218 C151.59411423 61.4552913 149.29787081 59.16288994 147.00073242 56.87133789 C146.3176149 56.18619614 145.63449738 55.50105438 144.93067932 54.79515076 C144.30698456 54.17427582 143.68328979 53.55340088 143.04069519 52.91371155 C142.49855472 52.3719481 141.95641424 51.83018465 141.39784527 51.27200413 C138.46004481 48.59867941 135.99687362 48.86461769 132.14083862 48.84178162 C130.26877243 48.82709839 130.26877243 48.82709839 128.35888672 48.81211853 C126.9682621 48.80621396 125.57763708 48.80040354 124.18701172 48.79467773 C122.72860433 48.78510177 121.27019974 48.77509186 119.8117981 48.76467896 C115.84511871 48.73759328 111.87842739 48.71660359 107.91170645 48.69667697 C103.76900641 48.67483997 99.62634334 48.64744012 95.4836731 48.62062073 C87.63558155 48.57066287 79.78746952 48.52573554 71.93933785 48.48259836 C63.00594251 48.43325239 54.07258426 48.37832449 45.13922477 48.32291877 C26.75951759 48.20905125 8.37977544 48.10222262 -10 48 C-9.2299128 43.75304919 -8.45336827 39.50730225 -7.67578125 35.26171875 C-7.46087036 34.07606323 -7.24595947 32.89040771 -7.02453613 31.66882324 C-5.0673957 21.01287629 -2.6455874 10.50354486 0 0 Z " fill="#FDFEFE" transform="translate(163,42)"/>
<path d="M0 0 C2.6526557 2.36252149 3.25524819 4.59069169 4 8 C4.28746094 8.87914062 4.57492187 9.75828125 4.87109375 10.6640625 C8.98794936 24.24053745 7.42603451 37.72189647 3 51 C0.64631607 51.48164188 -1.70790155 51.96036648 -4.0625 52.4375 C-4.71927734 52.57220703 -5.37605469 52.70691406 -6.05273438 52.84570312 C-13.57133635 54.3642385 -20.82909931 55.19489008 -28.5 55.1875 C-29.37495117 55.18669434 -30.24990234 55.18588867 -31.15136719 55.18505859 C-41.63204177 55.08755505 -51.89885565 53.88604124 -62 51 C-64.45907385 43.32573437 -65.55031228 36.30127161 -65.5 28.25 C-65.49572998 27.20956543 -65.49145996 26.16913086 -65.48706055 25.09716797 C-65.30297684 16.69956869 -64.40943554 8.33817174 -60 1 C-45.73890576 -7.0804851 -14.95340849 -5.86603126 0 0 Z " fill="#FCFDFE" transform="translate(258,346)"/>
<path d="M0 0 C1.17374428 0.00561951 1.17374428 0.00561951 2.37120056 0.01135254 C4.01953267 0.02475487 5.66780322 0.05250893 7.31567383 0.09375 C9.83540102 0.15614 12.35262324 0.1757028 14.87304688 0.1875 C16.47789502 0.20583986 18.08271779 0.22659139 19.6875 0.25 C20.43862564 0.25849976 21.18975128 0.26699951 21.96363831 0.27575684 C28.71689871 0.46000119 28.71689871 0.46000119 31.77734375 2.65625 C34.80971816 7.20481161 34.10627554 11.68105782 34.08984375 17.03125 C34.10595703 18.0728125 34.12207031 19.114375 34.13867188 20.1875 C34.14486005 29.86579919 34.14486005 29.86579919 30.77734375 33.65625 C28.08984375 34.96875 28.08984375 34.96875 25.77734375 35.65625 C26.72609375 36.254375 27.67484375 36.8525 28.65234375 37.46875 C31.77734375 39.65625 31.77734375 39.65625 33.77734375 42.65625 C33.70167732 46.81790352 33.3729762 48.95550594 30.65234375 52.15625 C26.78934512 54.17172754 24.99248052 53.66421749 20.77734375 52.65625 C18.17315144 51.24266468 15.87001835 49.5264632 13.52734375 47.71875 C12.31384421 46.8137456 11.10030401 45.9087957 9.88671875 45.00390625 C8.860625 44.22917969 7.83453125 43.45445312 6.77734375 42.65625 C5.78734375 41.99625 4.79734375 41.33625 3.77734375 40.65625 C3.63039062 41.68685547 3.63039062 41.68685547 3.48046875 42.73828125 C3.3309375 43.63933594 3.18140625 44.54039062 3.02734375 45.46875 C2.888125 46.36207031 2.74890625 47.25539062 2.60546875 48.17578125 C1.58868272 51.22134317 0.56619319 52.12441846 -2.22265625 53.65625 C-6.24958987 53.65625 -8.39184698 53.41143825 -11.40600586 50.67163086 C-13.90504199 46.52358688 -13.81675861 43.16885424 -13.7890625 38.41015625 C-13.79526108 37.52142319 -13.80145966 36.63269012 -13.80784607 35.71702576 C-13.81493366 33.8418792 -13.81178874 31.96666957 -13.79907227 30.09155273 C-13.78521595 27.23107383 -13.81927928 24.37387422 -13.85742188 21.51367188 C-13.85837325 19.6874992 -13.85651325 17.86132246 -13.8515625 16.03515625 C-13.86482071 15.18498428 -13.87807892 14.33481232 -13.89173889 13.45887756 C-13.8294615 9.46249037 -13.53078497 6.43908368 -11.19726562 3.11108398 C-7.45518033 0.0228808 -4.64939276 -0.15326398 0 0 Z " fill="#1B6EA0" transform="translate(144.22265625,193.34375)"/>
<path d="M0 0 C3.79293295 1.10339868 5.0202037 1.94552886 7.4375 5 C7.91992188 7.66967773 7.91992188 7.66967773 7.90625 10.68359375 C7.92042969 11.77607422 7.93460938 12.86855469 7.94921875 13.99414062 C7.94141954 16.28580734 7.93360709 18.577474 7.92578125 20.86914062 C7.9165416 27.35250679 7.9165416 27.35250679 10.34375 33.22265625 C13.7866108 36.14523398 15.9479126 36.3521245 20.4375 36 C24.22953715 34.27634675 25.93483145 32.85419832 27.4375 29 C27.73804981 26.26078279 27.73804981 26.26078279 27.7109375 23.28125 C27.7315625 22.18425781 27.7521875 21.08726562 27.7734375 19.95703125 C27.79947832 17.65241878 27.81770811 15.3477048 27.828125 13.04296875 C27.85132813 11.94597656 27.87453125 10.84898437 27.8984375 9.71875 C27.90665527 8.71779297 27.91487305 7.71683594 27.92333984 6.68554688 C28.57351331 3.28957911 29.73923863 2.10075857 32.4375 0 C36.37224728 -0.66974422 37.91084208 -0.35110528 41.25 1.875 C44.45789455 4.99124042 44.58126183 6.7405845 44.67578125 11.09375 C44.70647675 13.22908936 44.73093326 15.36452515 44.75 17.5 C44.77900391 18.551875 44.80800781 19.60375 44.83789062 20.6875 C44.91986293 30.87728854 42.39728939 38.81714278 35.375 46.30859375 C29.52941938 51.41169135 22.76912599 53.37743396 15.12890625 53.27734375 C7.74502221 52.51645004 1.32957019 48.44780936 -3.5625 43 C-9.05277138 35.1187106 -9.32883783 27.49098691 -9.1875 18.125 C-9.20683594 16.82046875 -9.22617188 15.5159375 -9.24609375 14.171875 C-9.23964844 12.92148438 -9.23320313 11.67109375 -9.2265625 10.3828125 C-9.22092285 9.25246582 -9.2152832 8.12211914 -9.20947266 6.95751953 C-8.5625 4 -8.5625 4 -6.24365234 1.60107422 C-3.5625 0 -3.5625 0 0 0 Z " fill="#176C9E" transform="translate(78.5625,194)"/>
<path d="M0 0 C3.85784957 1.92892479 5.85031247 3.59719934 8.86035156 6.6015625 C9.32910706 7.06681335 9.79786255 7.53206421 10.28082275 8.01141357 C11.82247932 9.54429638 13.35673904 11.08434442 14.890625 12.625 C15.96078747 13.69381503 17.03124667 14.76233303 18.10198975 15.83056641 C20.34111749 18.06674918 22.5765963 20.30650093 24.80957031 22.54882812 C27.6768374 25.42751696 30.55302616 28.29709784 33.43198013 31.16409302 C35.64198179 33.3668827 37.84721633 35.57439501 40.05101776 37.78338623 C41.1101359 38.84384127 42.17074926 39.90280509 43.23285675 40.96026611 C44.71253049 42.43488252 46.18567746 43.91571938 47.65722656 45.3984375 C48.49787659 46.24067871 49.33852661 47.08291992 50.20465088 47.95068359 C52 50 52 50 52 52 C34.84 52 17.68 52 0 52 C0 34.84 0 17.68 0 0 Z " fill="#F4F8FA" transform="translate(306,118)"/>
<path d="M0 0 C4.07977143 0.84995238 5.41277811 2.39077044 8 5.625 C8.56762695 9.13012695 8.56762695 9.13012695 8.48828125 13.11328125 C8.48120651 13.81647995 8.47413177 14.51967865 8.46684265 15.2441864 C8.43899212 17.47640227 8.3762832 19.70605077 8.3125 21.9375 C8.28740451 23.45634381 8.26459352 24.9752272 8.24414062 26.49414062 C8.18920007 30.20525248 8.10299739 33.91487541 8 37.625 C9.31355469 37.57859375 10.62710938 37.5321875 11.98046875 37.484375 C13.71612304 37.44684734 15.45180199 37.41044825 17.1875 37.375 C18.05181641 37.34148437 18.91613281 37.30796875 19.80664062 37.2734375 C24.008591 37.20903979 26.38292304 37.26523397 30.08203125 39.421875 C32 41.625 32 41.625 32.5 45.125 C31.99018374 48.69371381 31.56333571 50.15660265 29 52.625 C24.02852882 54.28215706 18.8663781 53.96751604 13.65820312 54.0300293 C12.30605551 54.05162339 10.95404824 54.08574519 9.60253906 54.13256836 C7.64466505 54.1996941 5.68545525 54.22338481 3.7265625 54.24609375 C2.55689941 54.2711499 1.38723633 54.29620605 0.18212891 54.32202148 C-3.32513044 53.55378261 -4.9617436 52.4504312 -7.07894897 49.53166199 C-8.86639831 45.83147425 -8.71095009 42.06721105 -8.6640625 38.02734375 C-8.66884613 37.11545792 -8.67362976 36.20357208 -8.67855835 35.26405334 C-8.68194914 33.34357978 -8.67280429 31.42304785 -8.65185547 29.50268555 C-8.62504601 26.56753761 -8.65164583 23.63620258 -8.68359375 20.70117188 C-8.68029011 18.83072075 -8.67388482 16.960272 -8.6640625 15.08984375 C-8.67418365 14.21577377 -8.68430481 13.3417038 -8.69473267 12.44114685 C-8.6099782 8.02549319 -8.42356757 6.17424967 -5.64599609 2.57250977 C-3 0.625 -3 0.625 0 0 Z " fill="#166B9E" transform="translate(201,193.375)"/>
<path d="M0 0 C-0.16298584 1.01457275 -0.32597168 2.02914551 -0.49389648 3.07446289 C-0.96309741 6.71376909 -1.11454486 10.14376511 -1.09765625 13.80859375 C-1.09443359 15.04931641 -1.09121094 16.29003906 -1.08789062 17.56835938 C-1.07951172 18.84517578 -1.07113281 20.12199219 -1.0625 21.4375 C-1.05798828 22.74138672 -1.05347656 24.04527344 -1.04882812 25.38867188 C-1.03709251 28.59249552 -1.02067363 31.79622363 -1 35 C-5.04951066 33.70650776 -8.31212564 32.36450573 -11.8125 29.9375 C-12.58207031 29.41027344 -13.35164062 28.88304687 -14.14453125 28.33984375 C-16 27 -16 27 -17 26 C-17.87513378 20.4225629 -18.68678642 14.48734361 -17 9 C-13.72873025 4.88531603 -8.75322532 2.95505412 -4 1 C-2 0 -2 0 0 0 Z " fill="#F8FAFC" transform="translate(179,354)"/>
<path d="M0 0 C13.53 0 27.06 0 41 0 C37.39058247 7.21883506 30.53349985 11.81310032 24.01953125 16.3828125 C20.83977552 17.35457537 18.9928218 16.31981582 16 15 C12.9296875 13.01171875 12.9296875 13.01171875 9.875 10.6875 C8.86179688 9.92824219 7.84859375 9.16898437 6.8046875 8.38671875 C4.12421646 6.10570509 2.05142219 3.85137868 0 1 C0 0.67 0 0.34 0 0 Z " fill="#F8FBFC" transform="translate(208,416)"/>
<path d="M0 0 C2.29679188 1.09442433 4.58704964 2.19986661 6.875 3.3125 C7.52597656 3.62123047 8.17695313 3.92996094 8.84765625 4.24804688 C12.19676398 5.88807385 13.89005879 6.83508818 16 10 C17.32423048 15.98253757 17.72072001 23.08987231 16 29 C12.81168626 33.25605701 7.89960478 35.25553917 3 37 C2.34 37 1.68 37 1 37 C1.16113281 36.00097656 1.32226562 35.00195312 1.48828125 33.97265625 C3.10209173 22.59600642 1.96749495 11.24282827 0 0 Z " fill="#F8FBFC" transform="translate(278,353)"/>
<path d="M0 0 C7.59 0 15.18 0 23 0 C23 10.89 23 21.78 23 33 C20.02651951 30.02651951 17.97909378 27.71235508 15.72265625 24.296875 C14.82836914 22.94916016 14.82836914 22.94916016 13.91601562 21.57421875 C13.30435547 20.64222656 12.69269531 19.71023438 12.0625 18.75 C11.45470703 17.83347656 10.84691406 16.91695313 10.22070312 15.97265625 C6.73025452 10.6936822 3.356114 5.36978241 0 0 Z " fill="#00A9EB" transform="translate(47,271)"/>
<path d="M0 0 C17.19184846 5.56883056 17.19184846 5.56883056 21.625 13.6875 C22.40423828 15.23244141 22.40423828 15.23244141 23.19921875 16.80859375 C26.28208035 22.27214673 30.62943348 26.53270062 35 31 C34.01 31.495 34.01 31.495 33 32 C18.93707783 26.65709767 6.31381088 13.47154697 0 0 Z " fill="#F4F8FA" transform="translate(168,403)"/>
<path d="M0 0 C-6.71338329 11.54874618 -14.78129114 21.026409 -27 27 C-27.66 26.67 -28.32 26.34 -29 26 C-28.5153125 25.42894531 -28.030625 24.85789062 -27.53125 24.26953125 C-23.51756646 19.41451789 -20.2085845 14.66052749 -17.1875 9.125 C-13.74219875 3.31661937 -10.76186333 1.16844547 -4.3203125 -0.6796875 C-2 -1 -2 -1 0 0 Z " fill="#F2F6F9" transform="translate(286,406)"/>
<path d="M0 0 C2.60546875 1.5234375 2.60546875 1.5234375 5.1875 3.375 C6.04730469 3.98085938 6.90710938 4.58671875 7.79296875 5.2109375 C10 7 10 7 12 10 C-3.84 10.495 -3.84 10.495 -20 11 C-16.71835755 6.89794694 -14.78435712 4.8536899 -10.5625 2.125 C-9.63566406 1.50882812 -8.70882812 0.89265625 -7.75390625 0.2578125 C-4.48413904 -1.23561309 -3.34106363 -1.22259742 0 0 Z " fill="#F6F9FB" transform="translate(232,317)"/>
<path d="M0 0 C0.66 0.33 1.32 0.66 2 1 C1.41992188 1.61746094 0.83984375 2.23492187 0.2421875 2.87109375 C-3.56385523 6.997447 -7.00025128 10.80512539 -9.6875 15.75 C-13.4552169 21.78264073 -20.42827468 24.06218356 -27 26 C-27.66 25.67 -28.32 25.34 -29 25 C-20.9786664 14.33403052 -12.29836628 5.65993456 0 0 Z " fill="#F1F6F9" transform="translate(201,313)"/>
<path d="M0 0 C11.02460043 4.07950016 20.19352877 11.47094027 27 21 C27 21.66 27 22.32 27 23 C25.24593347 22.60079865 23.49681018 22.17984334 21.75 21.75 C20.77546875 21.51796875 19.8009375 21.2859375 18.796875 21.046875 C13.63115101 19.11333585 11.10781733 14.93893808 8 10.5625 C5.42962323 6.95292794 2.79580959 3.43859617 0 0 Z " fill="#F0F5F8" transform="translate(255,314)"/>
</svg>
